<svg xmlns="http://www.w3.org/2000/svg" xmlns:xlink="http://www.w3.org/1999/xlink" width="500" zoomAndPan="magnify" viewBox="0 0 375 374.999991" height="500" preserveAspectRatio="xMidYMid meet" version="1.0"><defs><filter x="0%" y="0%" width="100%" height="100%" id="18414b2bb0"><feColorMatrix values="0 0 0 0 1 0 0 0 0 1 0 0 0 0 1 0 0 0 1 0" color-interpolation-filters="sRGB"/></filter><clipPath id="4d37744ad5"><path d="M 137.050781 127.53125 L 237.949219 127.53125 L 237.949219 216.039062 L 137.050781 216.039062 Z M 137.050781 127.53125 " clip-rule="nonzero"/></clipPath><clipPath id="4b3004eb10"><path d="M 137.050781 153.640625 C 137.050781 181.753906 187.5 216.039062 187.5 216.039062 C 187.5 216.039062 237.726562 181.511719 237.949219 153.640625 C 237.949219 139.253906 226.222656 127.53125 211.835938 127.53125 C 200.777344 127.53125 191.253906 134.613281 187.5 144.339844 C 183.746094 134.613281 174.222656 127.53125 163.164062 127.53125 C 148.773438 127.53125 137.050781 139.253906 137.050781 153.640625 " clip-rule="nonzero"/></clipPath><mask id="439856874e"><g filter="url(#18414b2bb0)"><rect x="-37.5" width="450" fill="#000000" y="-37.499999" height="449.999989" fill-opacity="0.82"/></g></mask><clipPath id="c2009af866"><path d="M 0.351562 0.597656 L 80.648438 0.597656 L 80.648438 71.039062 L 0.351562 71.039062 Z M 0.351562 0.597656 " clip-rule="nonzero"/></clipPath><clipPath id="77e3b74446"><path d="M 0.351562 21.378906 C 0.351562 43.75 40.5 71.039062 40.5 71.039062 C 40.5 71.039062 80.472656 43.558594 80.648438 21.378906 C 80.648438 9.929688 71.320312 0.597656 59.867188 0.597656 C 51.066406 0.597656 43.488281 6.234375 40.5 13.976562 C 37.511719 6.234375 29.933594 0.597656 21.132812 0.597656 C 9.679688 0.597656 0.351562 9.929688 0.351562 21.378906 " clip-rule="nonzero"/></clipPath><clipPath id="1f7093b7de"><rect x="0" width="81" y="0" height="72"/></clipPath></defs><path fill="#1b9ce4" d="M 112.792969 160.21875 C 112.792969 120.679688 144.847656 88.628906 184.386719 88.628906 C 202.460938 88.628906 218.96875 95.332031 231.570312 106.382812 C 217.863281 85.136719 193.984375 71.066406 166.824219 71.066406 C 124.300781 71.066406 89.828125 105.539062 89.828125 148.0625 C 89.828125 185.003906 115.851562 215.867188 150.566406 223.332031 C 128.082031 211.257812 112.792969 187.527344 112.792969 160.21875 " fill-opacity="1" fill-rule="nonzero"/><path fill="#183e9f" d="M 258.328125 52.34375 C 256.914062 51.816406 256.289062 53.289062 256.046875 55.273438 C 255.574219 59.148438 257.121094 62.980469 260.058594 65.554688 C 290.757812 92.453125 284.796875 158.351562 264.738281 154.421875 C 251.566406 151.847656 265.59375 112.691406 254.613281 111.359375 C 247.320312 110.472656 240.839844 128.621094 241.300781 152.550781 C 241.566406 166.242188 245.964844 177.542969 249.824219 187.347656 C 255.421875 201.554688 250.28125 217.816406 237.410156 226.03125 C 196.460938 252.164062 141.457031 247.347656 105.6875 211.574219 C 86.789062 192.675781 76.535156 168.410156 74.917969 143.679688 C 67.015625 180.296875 77.328125 220.054688 105.859375 248.46875 C 141.820312 284.28125 199.238281 291.734375 243.1875 266.355469 C 284.90625 242.261719 302.355469 192.683594 304.839844 146.589844 C 307.996094 87.960938 274.347656 58.378906 258.328125 52.34375 Z M 252.578125 84.425781 C 268.523438 98.441406 274.550781 122.984375 273.84375 142.753906 C 276.347656 136.625 277.707031 127.648438 277.394531 118.035156 C 276.980469 105.1875 273.921875 93.15625 268.808594 83.402344 C 262.191406 77.039062 255.675781 73.015625 250.796875 71.175781 C 249.351562 70.632812 248.726562 72.1875 248.496094 74.242188 C 248.066406 78.097656 249.664062 81.867188 252.578125 84.425781 " fill-opacity="1" fill-rule="nonzero"/><g clip-path="url(#4d37744ad5)"><g clip-path="url(#4b3004eb10)"><path fill="#183e9f" d="M 137.050781 127.53125 L 237.949219 127.53125 L 237.949219 216.039062 L 137.050781 216.039062 Z M 137.050781 127.53125 " fill-opacity="1" fill-rule="nonzero"/></g></g><g mask="url(#439856874e)"><g transform="matrix(1, 0, 0, 1, 147, 145)"><g clip-path="url(#1f7093b7de)"><g clip-path="url(#c2009af866)"><g clip-path="url(#77e3b74446)"><path fill="#54afe6" d="M 0.351562 0.597656 L 80.648438 0.597656 L 80.648438 71.039062 L 0.351562 71.039062 Z M 0.351562 0.597656 " fill-opacity="1" fill-rule="nonzero"/></g></g></g></g></g></svg>